<svg width="323" height="136" viewBox="0 0 323 136" fill="none" xmlns="http://www.w3.org/2000/svg">
<path d="M68.7633 59.9187C68.7633 64.9215 67.867 69.5907 66.0743 73.9264C64.2817 78.2205 61.8429 81.9517 58.7578 85.1201C55.6728 88.2468 52.0458 90.7273 47.8768 92.5617C43.7496 94.3543 39.3096 95.2507 34.557 95.2507C29.8461 95.2507 25.4061 94.3543 21.2372 92.5617C17.1099 90.7273 13.4829 88.2468 10.3562 85.1201C7.27113 81.9517 4.83228 78.2205 3.03963 73.9264C1.24698 69.5907 0.350647 64.9215 0.350647 59.9187C0.350647 54.8326 1.24698 50.1217 3.03963 45.7859C4.83228 41.4502 7.27113 37.719 10.3562 34.5923C13.4829 31.4239 17.1099 28.9433 21.2372 27.1507C25.4061 25.358 29.8461 24.4617 34.557 24.4617C39.3096 24.4617 43.7496 25.3163 47.8768 27.0256C52.0458 28.6932 55.6728 31.0903 58.7578 34.2171C61.8429 37.3021 64.2817 41.0333 66.0743 45.4107C67.867 49.7464 68.7633 54.5824 68.7633 59.9187ZM51.5664 59.9187C51.5664 57.1672 51.1078 54.6867 50.1906 52.4771C49.3151 50.2259 48.1061 48.3082 46.5636 46.7239C45.0211 45.0981 43.2076 43.8682 41.1231 43.0344C39.0803 42.1589 36.8916 41.7212 34.557 41.7212C32.2224 41.7212 30.0128 42.1589 27.9283 43.0344C25.8855 43.8682 24.0929 45.0981 22.5504 46.7239C21.0496 48.3082 19.8614 50.2259 18.9859 52.4771C18.1104 54.6867 17.6727 57.1672 17.6727 59.9187C17.6727 62.5035 18.1104 64.9006 18.9859 67.1102C19.8614 69.3197 21.0496 71.2374 22.5504 72.8633C24.0929 74.4892 25.8855 75.7816 27.9283 76.7405C30.0128 77.6577 32.2224 78.1162 34.557 78.1162C36.8916 78.1162 39.0803 77.6785 41.1231 76.803C43.2076 75.9275 45.0211 74.6977 46.5636 73.1135C48.1061 71.5293 49.3151 69.6116 50.1906 67.3603C51.1078 65.1091 51.5664 62.6285 51.5664 59.9187Z" fill="white"/>
<path d="M111.287 94C107.159 94 103.282 93.2287 99.6553 91.6862C96.0283 90.102 92.8391 87.955 90.0876 85.2452C87.3778 82.4936 85.2307 79.3044 83.6465 75.6774C82.104 72.0504 81.3328 68.1733 81.3328 64.046V44.16H73.0157V27.1507H81.3328V0.385925H98.3421V27.1507H124.231V44.16H98.3421V64.046C98.3421 65.8386 98.6756 67.5271 99.3427 69.1113C100.01 70.6538 100.927 72.0087 102.094 73.176C103.261 74.3433 104.637 75.2813 106.221 75.9901C107.806 76.6571 109.494 76.9906 111.287 76.9906H124.231V94H111.287Z" fill="white"/>
<path d="M195.521 94H174.634L161.314 73.4887L147.869 94H126.983L151.434 59.6686L126.983 26.6504H147.869L161.314 45.8485L174.634 26.6504H195.521L171.007 59.6686L195.521 94Z" fill="white"/>
<path d="M235.23 94C231.103 94 227.226 93.2287 223.599 91.6862C219.972 90.102 216.782 87.955 214.031 85.2452C211.321 82.4936 209.174 79.3044 207.59 75.6774C206.047 72.0504 205.276 68.1733 205.276 64.046V44.16H196.959V27.1507H205.276V0.385925H222.285V27.1507H248.175V44.16H222.285V64.046C222.285 65.8386 222.619 67.5271 223.286 69.1113C223.953 70.6538 224.87 72.0087 226.037 73.176C227.205 74.3433 228.581 75.2813 230.165 75.9901C231.749 76.6571 233.437 76.9906 235.23 76.9906H248.175V94H235.23Z" fill="white"/>
<path d="M322.528 59.9187C322.528 64.9215 321.632 69.5907 319.839 73.9264C318.046 78.2205 315.608 81.9517 312.523 85.1201C309.438 88.2468 305.811 90.7273 301.642 92.5617C297.514 94.3543 293.074 95.2507 288.322 95.2507C283.611 95.2507 279.171 94.3543 275.002 92.5617C270.875 90.7273 267.248 88.2468 264.121 85.1201C261.036 81.9517 258.597 78.2205 256.804 73.9264C255.012 69.5907 254.115 64.9215 254.115 59.9187C254.115 54.8326 255.012 50.1217 256.804 45.7859C258.597 41.4502 261.036 37.719 264.121 34.5923C267.248 31.4239 270.875 28.9433 275.002 27.1507C279.171 25.358 283.611 24.4617 288.322 24.4617C293.074 24.4617 297.514 25.3163 301.642 27.0256C305.811 28.6932 309.438 31.0903 312.523 34.2171C315.608 37.3021 318.046 41.0333 319.839 45.4107C321.632 49.7464 322.528 54.5824 322.528 59.9187ZM305.331 59.9187C305.331 57.1672 304.873 54.6867 303.955 52.4771C303.08 50.2259 301.871 48.3082 300.328 46.7239C298.786 45.0981 296.972 43.8682 294.888 43.0344C292.845 42.1589 290.656 41.7212 288.322 41.7212C285.987 41.7212 283.778 42.1589 281.693 43.0344C279.65 43.8682 277.858 45.0981 276.315 46.7239C274.814 48.3082 273.626 50.2259 272.751 52.4771C271.875 54.6867 271.437 57.1672 271.437 59.9187C271.437 62.5035 271.875 64.9006 272.751 67.1102C273.626 69.3197 274.814 71.2374 276.315 72.8633C277.858 74.4892 279.65 75.7816 281.693 76.7405C283.778 77.6577 285.987 78.1162 288.322 78.1162C290.656 78.1162 292.845 77.6785 294.888 76.803C296.972 75.9275 298.786 74.6977 300.328 73.1135C301.871 71.5293 303.08 69.6116 303.955 67.3603C304.873 65.1091 305.331 62.6285 305.331 59.9187Z" fill="white"/>
<rect x="2.49156" y="120.666" width="57.2632" height="15.3341" rx="7.66707" fill="#FF6EBD"/>
<rect x="66.6682" y="120.666" width="57.2632" height="15.3341" rx="7.66707" fill="#15DA2A"/>
<rect x="130.845" y="120.666" width="62.8956" height="15.3341" rx="7.66707" fill="#7E4FED"/>
<rect x="201.25" y="120.666" width="57.2632" height="15.3341" rx="7.66707" fill="#04E1FF"/>
<rect x="265.433" y="120.666" width="57.2632" height="15.3341" rx="7.66707" fill="#FFD60A"/>
</svg>
