<svg xmlns="http://www.w3.org/2000/svg" width="323" height="136" fill="none"><path fill="#fff" d="M68.763 59.919c0 5.002-.896 9.672-2.689 14.007-1.792 4.294-4.231 8.026-7.316 11.194-3.085 3.127-6.712 5.607-10.881 7.442-4.127 1.792-8.567 2.689-13.32 2.689-4.71 0-9.15-.897-13.32-2.69-4.127-1.834-7.754-4.314-10.88-7.44-3.086-3.17-5.525-6.9-7.317-11.195C1.247 69.591.35 64.921.35 59.92c0-5.086.897-9.797 2.69-14.133 1.792-4.336 4.231-8.067 7.316-11.194a34.382 34.382 0 0 1 10.881-7.441c4.17-1.793 8.61-2.69 13.32-2.69 4.753 0 9.193.855 13.32 2.565 4.169 1.667 7.796 4.064 10.88 7.191 3.086 3.085 5.525 6.816 7.317 11.194 1.793 4.335 2.69 9.171 2.69 14.508Zm-17.197 0c0-2.752-.458-5.232-1.375-7.442-.876-2.251-2.085-4.169-3.627-5.753a15.189 15.189 0 0 0-5.44-3.69c-2.044-.875-4.232-1.313-6.567-1.313s-4.544.438-6.629 1.313a15.321 15.321 0 0 0-5.378 3.69c-1.5 1.584-2.689 3.502-3.564 5.753-.876 2.21-1.313 4.69-1.313 7.442 0 2.585.437 4.982 1.313 7.191.875 2.21 2.064 4.127 3.564 5.753a17.732 17.732 0 0 0 5.378 3.877 16.278 16.278 0 0 0 6.629 1.376c2.335 0 4.523-.438 6.566-1.313a16.337 16.337 0 0 0 5.44-3.69c1.543-1.584 2.752-3.501 3.628-5.753.917-2.25 1.375-4.731 1.375-7.441ZM111.287 94c-4.128 0-8.005-.771-11.632-2.314-3.627-1.584-6.816-3.731-9.567-6.44-2.71-2.752-4.857-5.942-6.441-9.569-1.543-3.627-2.314-7.504-2.314-11.631V44.16h-8.317V27.15h8.317V.387h17.01V27.15h25.888V44.16H98.342v19.886c0 1.793.334 3.481 1 5.065a12.983 12.983 0 0 0 2.752 4.065c1.167 1.167 2.543 2.105 4.127 2.814 1.585.667 3.273 1 5.066 1h12.944V94h-12.944ZM195.521 94h-20.887l-13.32-20.511L147.869 94h-20.886l24.451-34.331-24.451-33.019h20.886l13.445 19.199 13.32-19.199h20.887L171.007 59.67 195.521 94ZM235.23 94c-4.127 0-8.004-.771-11.631-2.314-3.627-1.584-6.817-3.731-9.568-6.44-2.71-2.752-4.857-5.942-6.441-9.569-1.543-3.627-2.314-7.504-2.314-11.631V44.16h-8.317V27.15h8.317V.387h17.009V27.15h25.89V44.16h-25.89v19.886c0 1.793.334 3.481 1.001 5.065a12.978 12.978 0 0 0 2.751 4.065c1.168 1.167 2.544 2.105 4.128 2.814 1.584.667 3.272 1 5.065 1h12.945V94H235.23ZM322.528 59.919c0 5.002-.896 9.672-2.689 14.007-1.793 4.294-4.231 8.026-7.316 11.194-3.085 3.127-6.712 5.607-10.881 7.442-4.128 1.792-8.568 2.689-13.32 2.689-4.711 0-9.151-.897-13.32-2.69-4.127-1.834-7.754-4.314-10.881-7.44-3.085-3.17-5.524-6.9-7.317-11.195-1.792-4.335-2.689-9.005-2.689-14.007 0-5.086.897-9.797 2.689-14.133 1.793-4.336 4.232-8.067 7.317-11.194a34.39 34.39 0 0 1 10.881-7.441c4.169-1.793 8.609-2.69 13.32-2.69 4.752 0 9.192.855 13.32 2.565 4.169 1.667 7.796 4.064 10.881 7.191 3.085 3.085 5.523 6.816 7.316 11.194 1.793 4.335 2.689 9.171 2.689 14.508Zm-17.197 0c0-2.752-.458-5.232-1.376-7.442-.875-2.251-2.084-4.169-3.627-5.753a15.187 15.187 0 0 0-5.44-3.69c-2.043-.875-4.232-1.313-6.566-1.313-2.335 0-4.544.438-6.629 1.313a15.324 15.324 0 0 0-5.378 3.69c-1.501 1.584-2.689 3.502-3.564 5.753-.876 2.21-1.314 4.69-1.314 7.442 0 2.585.438 4.982 1.314 7.191.875 2.21 2.063 4.127 3.564 5.753a17.736 17.736 0 0 0 5.378 3.877 16.28 16.28 0 0 0 6.629 1.376c2.334 0 4.523-.438 6.566-1.313a16.335 16.335 0 0 0 5.44-3.69c1.543-1.584 2.752-3.501 3.627-5.753.918-2.25 1.376-4.731 1.376-7.441Z"/><rect width="57.263" height="15.334" x="2.492" y="120.666" fill="#FF6EBD" rx="7.667"/><rect width="57.263" height="15.334" x="66.668" y="120.666" fill="#15DA2A" rx="7.667"/><rect width="62.896" height="15.334" x="130.845" y="120.666" fill="#7E4FED" rx="7.667"/><rect width="57.263" height="15.334" x="201.25" y="120.666" fill="#04E1FF" rx="7.667"/><rect width="57.263" height="15.334" x="265.433" y="120.666" fill="#FFD60A" rx="7.667"/></svg>